<?xml version="1.0" standalone="no"?>
<!DOCTYPE svg PUBLIC "-//W3C//DTD SVG 20010904//EN"
 "http://www.w3.org/TR/2001/REC-SVG-20010904/DTD/svg10.dtd">
<svg version="1.0" xmlns="http://www.w3.org/2000/svg"
 width="1000.000000pt" height="1000.000000pt" viewBox="0 0 1000.000000 1000.000000"
 preserveAspectRatio="xMidYMid meet">
<metadata>
Created by potrace 1.14, written by Peter Selinger 2001-2017
</metadata>
<g transform="translate(0.000000,1000.000000) scale(0.100000,-0.100000)"
fill="#000000" stroke="none">
<path d="M2943 8930 c-272 -49 -433 -262 -509 -675 -28 -152 -26 -599 4 -820
26 -196 63 -398 104 -568 24 -102 33 -127 45 -123 28 11 359 75 543 105 199
33 523 75 658 87 78 6 85 9 107 38 13 17 85 113 160 213 154 208 370 474 524
646 58 66 110 125 115 132 11 15 -86 111 -284 280 -499 428 -968 673 -1319
690 -53 2 -119 0 -148 -5z"/>
<path d="M6826 8930 c-348 -55 -778 -293 -1236 -685 -111 -95 -283 -254 -288
-266 -2 -5 52 -70 120 -147 173 -194 335 -394 509 -627 83 -110 161 -214 174
-231 22 -29 29 -32 107 -38 130 -11 455 -54 654 -86 177 -29 518 -95 547 -106
12 -4 21 21 45 123 41 170 78 372 104 568 30 221 32 668 4 820 -68 372 -202
575 -425 650 -90 30 -218 40 -315 25z"/>
<path d="M4866 7522 c-135 -154 -441 -531 -435 -536 2 -2 131 1 287 5 155 5
409 5 565 0 155 -4 284 -7 286 -5 10 8 -543 673 -567 681 -4 2 -65 -63 -136
-145z"/>
<path d="M4623 6569 c-276 -8 -383 -15 -708 -48 -110 -11 -252 -25 -315 -31
-189 -18 -451 -58 -684 -106 -121 -24 -222 -46 -224 -49 -12 -11 223 -659 295
-815 17 -36 74 -164 128 -285 201 -454 447 -914 741 -1385 178 -285 246 -383
275 -390 56 -15 513 -32 864 -32 403 -1 846 17 884 36 41 19 373 546 590 936
129 232 303 585 422 855 56 127 105 235 109 240 35 44 321 827 308 841 -19 18
-702 137 -858 148 -36 3 -175 17 -310 31 -135 14 -299 30 -365 35 -123 10
-750 31 -840 28 -27 -1 -168 -5 -312 -9z m766 -374 c162 -42 270 -113 457
-301 97 -97 145 -138 187 -157 207 -99 387 -67 553 97 58 56 72 66 67 46 -13
-54 -35 -108 -74 -179 -108 -200 -249 -312 -451 -361 -125 -30 -246 -35 -356
-16 -211 37 -335 102 -507 267 -66 63 -145 135 -175 158 -210 166 -436 154
-628 -34 -68 -67 -72 -69 -66 -41 14 70 68 188 113 253 151 215 401 315 726
291 50 -3 119 -14 154 -23z m-852 -891 c120 -13 271 -75 373 -155 30 -23 114
-99 185 -169 139 -137 189 -169 297 -195 162 -38 308 9 443 143 60 60 66 64
59 37 -25 -104 -111 -259 -195 -350 -89 -96 -216 -163 -374 -196 -86 -19 -285
-16 -369 4 -185 46 -304 116 -479 285 -127 122 -178 162 -262 204 -170 86
-358 45 -517 -113 -38 -37 -68 -66 -68 -64 0 2 10 34 21 71 59 191 177 337
339 419 160 81 315 103 547 79z"/>
<path d="M2112 6184 c-464 -145 -849 -325 -1132 -527 -106 -77 -273 -241 -330
-327 -24 -35 -58 -96 -74 -135 -29 -66 -31 -78 -31 -195 0 -117 2 -129 31
-195 16 -39 50 -100 74 -135 56 -84 212 -239 320 -319 177 -131 461 -282 735
-391 128 -51 480 -171 541 -184 l31 -7 82 241 c87 256 218 590 325 833 36 81
66 152 66 157 0 5 -34 87 -76 182 -115 260 -226 546 -316 811 -44 130 -86 237
-92 237 -6 -1 -75 -21 -154 -46z"/>
<path d="M7641 5990 c-87 -256 -218 -590 -325 -833 -36 -81 -66 -152 -66 -157
0 -5 34 -87 76 -182 115 -260 226 -546 316 -811 l81 -238 30 7 c74 16 357 112
517 175 422 166 727 346 936 554 112 111 172 194 218 300 29 66 31 78 31 195
0 117 -2 129 -31 195 -45 104 -106 189 -213 295 -208 208 -501 384 -913 548
-161 65 -468 169 -544 186 l-31 7 -82 -241z"/>
<path d="M2966 4433 c-114 -281 -284 -758 -274 -769 12 -12 564 -112 738 -134
47 -6 95 -13 108 -15 12 -3 22 -1 22 4 0 5 -32 59 -71 121 -110 176 -256 428
-379 653 -62 114 -113 207 -115 207 -1 0 -14 -30 -29 -67z"/>
<path d="M6890 4293 c-120 -221 -308 -544 -397 -681 -29 -45 -53 -87 -53 -92
0 -5 12 -7 28 -5 15 3 63 10 107 15 209 29 721 122 733 134 12 13 -275 803
-303 834 -1 1 -53 -91 -115 -205z"/>
<path d="M2542 3133 c-41 -169 -78 -372 -104 -568 -30 -219 -32 -667 -4 -820
69 -375 209 -586 439 -657 137 -43 333 -27 538 43 348 119 791 416 1206 809
63 59 84 86 77 95 -5 7 -60 71 -123 142 -167 188 -352 415 -511 629 -78 104
-152 203 -165 220 -22 29 -29 32 -107 38 -136 12 -460 54 -658 87 -185 31
-516 94 -543 105 -12 4 -22 -22 -45 -123z"/>
<path d="M7360 3244 c-199 -50 -755 -139 -1059 -170 -173 -18 -173 -18 -197
-49 -13 -16 -91 -120 -173 -230 -173 -232 -335 -432 -509 -627 -68 -77 -122
-143 -120 -147 2 -4 44 -46 95 -93 485 -452 935 -736 1320 -834 145 -37 303
-40 410 -6 230 71 370 282 439 657 28 153 26 601 -4 820 -36 270 -123 697
-140 694 -4 -1 -32 -7 -62 -15z"/>
<path d="M4430 3015 c0 -24 550 -680 570 -680 20 0 524 601 562 669 9 17 7 18
-44 11 -69 -10 -944 -10 -1025 0 -35 4 -63 4 -63 0z"/>
</g>
</svg>
